<svg width="50" height="50" viewBox="0 0 50 50" fill="none" xmlns="http://www.w3.org/2000/svg">
<path d="M27.695 4.5628e-06C28.4299 4.5628e-06 29.0874 0.457499 29.3349 1.14249L31.0998 6.03493C31.7323 6.19243 32.2748 6.34993 32.7348 6.51493C33.2373 6.69492 33.8847 6.96742 34.6847 7.33992L38.7946 5.16494C39.13 4.98721 39.5141 4.92306 39.8891 4.9821C40.2641 5.04115 40.6099 5.22022 40.8745 5.49244L44.4894 9.22989C44.9694 9.72739 45.1044 10.4549 44.8344 11.0899L42.9069 15.6073C43.2269 16.1948 43.4819 16.6973 43.6769 17.1173C43.8869 17.5748 44.1469 18.2048 44.4569 19.0173L48.9492 20.9423C49.6242 21.2297 50.0417 21.9047 49.9967 22.6272L49.6667 27.8147C49.6442 28.1517 49.5232 28.4746 49.3187 28.7435C49.1143 29.0124 48.8354 29.2153 48.5167 29.3271L44.2619 30.8396C44.1394 31.4271 44.0119 31.9296 43.8769 32.3546C43.6592 33.011 43.4106 33.6567 43.1319 34.2896L45.2694 39.0145C45.4202 39.3465 45.4608 39.7181 45.3853 40.0748C45.3097 40.4315 45.1219 40.7547 44.8494 40.997L40.7845 44.627C40.5168 44.865 40.1828 45.0156 39.8271 45.0585C39.4715 45.1014 39.1112 45.0345 38.7946 44.867L34.6047 42.647C33.9492 42.9941 33.273 43.3005 32.5798 43.5645L30.7499 44.2495L29.1249 48.7494C29.0045 49.079 28.7873 49.3644 28.5018 49.5683C28.2162 49.7722 27.8757 49.885 27.525 49.8919L22.7751 49.9994C22.415 50.0088 22.0609 49.9065 21.7614 49.7063C21.4619 49.5062 21.2318 49.2182 21.1027 48.8819L19.1878 43.8145C18.5344 43.5912 17.8875 43.3494 17.2478 43.0895C16.7246 42.863 16.2093 42.6187 15.7029 42.357L10.953 44.387C10.6401 44.5205 10.295 44.5602 9.95993 44.5011C9.62483 44.4421 9.31411 44.2869 9.06561 44.0545L5.55073 40.757C5.28904 40.5126 5.11082 40.192 5.04129 39.8408C4.97175 39.4895 5.01441 39.1252 5.16324 38.7995L7.20567 34.3496C6.93404 33.8225 6.6822 33.2855 6.4507 32.7396C6.18046 32.0714 5.93035 31.3953 5.70072 30.7121L1.22588 29.3496C0.862141 29.2397 0.544886 29.0127 0.323382 28.704C0.101878 28.3952 -0.0114779 28.022 0.000918641 27.6422L0.175913 22.8397C0.188369 22.5264 0.28625 22.2224 0.458973 21.9607C0.631695 21.6989 0.872684 21.4894 1.15588 21.3547L5.85072 19.0998C6.06821 18.3023 6.2582 17.6823 6.4257 17.2298C6.66154 16.6254 6.92344 16.0315 7.21067 15.4498L5.17574 11.1499C5.02131 10.8233 4.97441 10.4562 5.04179 10.1013C5.10917 9.74647 5.28736 9.4221 5.55073 9.17489L9.06061 5.85993C9.30665 5.62787 9.61451 5.47185 9.94714 5.41064C10.2798 5.34943 10.623 5.38565 10.9355 5.51494L15.6804 7.47491C16.2054 7.12492 16.6803 6.84242 17.1103 6.61492C17.6228 6.34243 18.3078 6.05743 19.1703 5.74994L20.8202 1.14749C20.9422 0.810666 21.1651 0.519702 21.4587 0.314328C21.7522 0.108955 22.1019 -0.000815617 22.4601 4.5628e-06H27.695ZM25.0601 17.5473C20.8927 17.5473 17.5153 20.8848 17.5153 25.0047C17.5153 29.1247 20.8927 32.4646 25.0601 32.4646C29.2249 32.4646 32.6023 29.1247 32.6023 25.0047C32.6023 20.8848 29.2274 17.5473 25.0601 17.5473Z" fill="#4788C7"/>
</svg>
