<svg width="28" height="24" viewBox="0 0 28 24" fill="none" xmlns="http://www.w3.org/2000/svg">
<path d="M16.536 0.150265V2.31732C19.936 2.3335 23.656 2.28752 27.057 2.3335C27.177 2.31574 27.3001 2.32204 27.4167 2.35191C27.5333 2.38178 27.6401 2.43439 27.7287 2.50556C27.8172 2.57673 27.885 2.6645 27.9267 2.7619C27.9685 2.8593 27.9829 2.96364 27.969 3.06663C28.023 8.4021 27.956 14.0424 28.001 19.3787C27.981 19.7193 28.01 20.3307 27.948 20.6704C27.869 21.1038 27.642 21.1873 27.131 21.246C26.845 21.2792 26.367 21.275 26.086 21.2861C23.294 21.2741 20.504 21.2767 17.712 21.2775H16.537V23.4463L0 21.2758V2.32158L16.536 0.149414" fill="#283C82"/>
<path d="M16.5361 3.12964H27.0361V20.4644H16.5361V18.2973H24.8061V17.2142H16.5361V15.8603H24.8061V14.7764H16.5361V13.4225H24.8061V12.3385H16.5361V10.9847H24.8061V9.90072H16.5361V8.54685H24.8061V7.46289H16.5361V6.10902H24.8061V5.02507H16.5361V3.12964ZM6.5731 7.91589C7.1731 7.88609 7.7821 7.8648 8.3861 7.83755C8.8091 9.66571 9.2421 11.4913 9.7001 13.3118C10.0591 11.4317 10.4571 9.55757 10.8421 7.68088C11.4776 7.66148 12.1127 7.63309 12.7471 7.59573C12.0281 10.22 11.3981 12.8665 10.6131 15.4755C10.0821 15.7113 9.2871 15.4644 8.6571 15.5027C8.2341 13.7095 7.7411 11.9264 7.3621 10.1264C6.9901 11.8813 6.5061 13.6124 6.0801 15.3511C5.46943 15.3239 4.85643 15.2924 4.2411 15.2566C3.7131 12.8724 3.0931 10.5061 2.6001 8.11684C3.1441 8.09555 3.6911 8.07597 4.2351 8.05979C4.5631 9.78492 4.9351 11.5024 5.2211 13.2301C5.6691 11.459 6.1281 9.687 6.5731 7.91589Z" fill="white"/>
</svg>