<svg width="32" height="32" viewBox="0 0 32 32" fill="none" xmlns="http://www.w3.org/2000/svg">
<g clip-path="url(#clip0_3_20)">
<path d="M11.5345 10.3564C11.6592 10.3564 11.7625 10.2841 11.7748 10.1888C11.7817 10.1386 11.7686 10.0754 11.7494 10.0167C11.7201 9.92472 11.8363 9.97606 12.0259 10.1251C12.2155 10.274 12.3695 10.4851 12.3695 10.5956C12.3695 10.7067 12.4485 10.7965 12.5456 10.7965H12.7217H14.0984C14.0984 10.7965 14.1943 10.7965 14.3128 10.7965C14.4313 10.7965 15.0316 10.7965 15.6551 10.7965C15.8842 10.7965 16.125 10.7965 16.3542 10.7965C16.977 10.7965 17.5785 10.7965 17.697 10.7965C17.8037 10.7965 17.9114 10.7965 17.9114 10.7965H19.2892C19.2892 10.7965 19.3682 10.7965 19.4653 10.7965C19.5629 10.7965 19.6414 10.7067 19.6414 10.5962C19.6414 10.4857 19.7954 10.2752 19.985 10.1257C20.1746 9.97616 20.2908 9.92538 20.2615 10.0173C20.2423 10.076 20.2294 10.1392 20.2356 10.1894C20.248 10.2853 20.3518 10.3575 20.4765 10.3575C20.5549 10.3575 20.6306 10.3282 20.6904 10.2752C20.7547 10.2176 20.7738 10.1476 20.7721 10.0822C20.7687 9.96254 20.709 9.72047 20.709 9.52813C20.709 9.33513 20.6932 9.18563 20.6723 9.19357L20.6362 9.20823C20.6339 9.20936 20.38 9.30808 19.9568 9.30808C19.5398 9.30808 18.8797 9.20993 18.1028 8.74157C17.5645 8.4177 17.2074 8.04361 16.9703 7.69998C16.6171 7.18651 16.6103 6.68099 16.7187 6.68666C16.787 6.69007 16.8524 6.69177 16.915 6.69177C17.5938 6.69177 17.7472 6.49035 17.7619 6.46719C17.7619 6.46719 17.7704 6.45537 17.7805 6.44071C17.7901 6.42605 17.7851 6.40799 17.7687 6.40118L17.7388 6.38823C17.4984 6.28383 17.2869 6.1575 17.112 6.03504C16.7853 5.80649 16.5629 5.54758 16.5568 5.52498C16.5507 5.50238 16.488 4.98333 16.4022 4.36604C16.3299 3.8469 16.2425 3.23197 16.1681 2.71283C16.0795 2.0961 15.9345 2.09553 15.8448 2.71226L15.6044 4.36774C15.5146 4.98447 15.4543 5.50181 15.4532 5.52498C15.452 5.54815 15.228 5.80602 14.9008 6.03448C14.7258 6.15693 14.5137 6.28327 14.2722 6.38766C14.2722 6.38766 14.2592 6.39333 14.2429 6.40062C14.2265 6.40799 14.2214 6.42549 14.2311 6.44014L14.2491 6.46719C14.2644 6.48979 14.419 6.6912 15.0977 6.6912C15.1603 6.6912 15.2258 6.6895 15.294 6.6861C15.4024 6.68042 15.3956 7.18661 15.0424 7.69998C14.8066 8.04305 14.4494 8.41713 13.9111 8.741C13.1342 9.20936 12.4739 9.30752 12.057 9.30752C11.6339 9.30752 11.38 9.2088 11.3777 9.20766C11.3777 9.20766 11.3613 9.20085 11.341 9.193C11.3207 9.18506 11.3043 9.33466 11.3043 9.52699C11.3043 9.71933 11.245 9.96093 11.2417 10.0806C11.24 10.1488 11.2598 10.2194 11.3218 10.2741C11.3799 10.327 11.456 10.3564 11.5345 10.3564Z" fill="#4788C7"/>
<path d="M7.68993 15.7108C7.76945 15.704 7.86874 15.6454 7.93143 15.568C7.98675 15.4997 8.00983 15.4219 7.99914 15.3446C7.99016 15.2752 7.9563 15.2109 7.91564 15.1555C7.84737 15.0624 7.77172 14.9863 7.77286 14.9614C7.77456 14.9365 8.01153 15.1442 8.35346 15.3513C8.69539 15.5584 9.02607 15.6667 9.02607 15.7434C9.02607 15.8202 9.09945 15.8822 9.19023 15.8822H9.35439H21.8567C22.4795 15.8822 22.9852 15.8202 22.9852 15.7434C22.9852 15.6667 23.3153 15.5589 23.6566 15.3513C23.9986 15.1442 24.235 14.9371 24.2367 14.9614C24.2384 14.9857 24.1627 15.063 24.0945 15.1555C24.0544 15.2103 24.0199 15.2752 24.0115 15.344C24.0008 15.4224 24.0245 15.4997 24.0798 15.568C24.1418 15.6458 24.2417 15.7046 24.3213 15.7108C24.503 15.7119 24.7445 15.6301 24.7597 15.4061C24.7654 15.3289 24.7484 15.265 24.7224 15.2143C24.6717 15.1161 24.5893 14.9051 24.5893 14.7042C24.5893 14.5034 24.5594 14.3262 24.5222 14.3081C24.4849 14.29 24.3557 14.3448 24.2338 14.43C24.1114 14.5152 23.5026 14.6878 22.8904 14.5711C22.5614 14.5085 22.1812 14.3866 21.7777 14.1637C20.5725 13.4956 20.0619 12.1387 20.0562 12.1246C20.0562 12.1246 20.0534 12.1166 20.05 12.1071C20.0466 12.0975 19.9952 12.0896 19.936 12.0896C19.8768 12.0896 19.8294 12.0428 19.8294 11.9858C19.8294 11.9287 19.7876 11.8819 19.7358 11.8819C19.6839 11.8819 19.1365 11.8814 18.5137 11.8814C16.4711 11.8808 12.3697 11.8808 12.3697 11.8808C12.3697 11.8808 12.328 11.8808 12.276 11.8808C12.2241 11.8808 12.1823 11.9276 12.1823 11.9846C12.1823 12.0416 12.1344 12.0885 12.0751 12.0885C12.0158 12.0885 11.965 12.0964 11.9612 12.1059L11.9543 12.1234C11.9492 12.137 11.4386 13.494 10.2334 14.1626C9.83003 14.386 9.44971 14.5079 9.12073 14.5705C8.50854 14.6873 7.89976 14.5146 7.7773 14.4288C7.65484 14.3431 7.52624 14.2889 7.48898 14.307C7.45173 14.325 7.42185 14.5022 7.42185 14.7031C7.42185 14.9039 7.33892 15.115 7.2887 15.2131C7.26279 15.2639 7.24587 15.3282 7.25088 15.4067C7.26677 15.642 7.53702 15.721 7.68993 15.7108Z" fill="#4788C7"/>
<path d="M24.7225 20.4257C24.6717 20.3282 24.5893 20.1165 24.5893 19.9157C24.5893 19.7148 24.5594 19.5376 24.5222 19.5196C24.4849 19.5021 24.3557 19.5563 24.2339 19.642C24.1114 19.7267 23.5026 19.8999 22.8904 19.7831C22.5615 19.7205 22.1812 19.5981 21.7777 19.3752C20.5725 18.7071 20.0619 17.3502 20.0562 17.3366C20.0562 17.3366 20.0534 17.3282 20.05 17.3191C20.0466 17.309 19.9953 17.3016 19.9361 17.3016C19.8768 17.3016 19.8294 17.2548 19.8294 17.1978C19.8294 17.1402 19.7876 17.0934 19.7358 17.0934C19.6839 17.0934 19.1365 17.0929 18.5137 17.0929C16.4712 17.0923 12.3698 17.0923 12.3698 17.0923C12.3698 17.0923 12.328 17.0923 12.276 17.0923C12.2241 17.0923 12.1823 17.1391 12.1823 17.1967C12.1823 17.2537 12.1344 17.3005 12.0751 17.3005C12.0158 17.3005 11.965 17.3085 11.9612 17.318L11.9543 17.3355C11.9492 17.3485 11.4386 18.7061 10.2334 19.3735C9.83003 19.5969 9.44971 19.7188 9.12073 19.782C8.50854 19.8988 7.89976 19.7255 7.7773 19.6398C7.65484 19.5546 7.52624 19.4998 7.48898 19.5184C7.45173 19.5359 7.42185 19.7137 7.42185 19.914C7.42185 20.1143 7.33892 20.3259 7.2887 20.424C7.26279 20.4748 7.24587 20.5391 7.25088 20.6176C7.26667 20.8529 7.53693 20.9325 7.68983 20.9217C7.76936 20.9149 7.86865 20.8563 7.93134 20.7789C7.98666 20.7107 8.00973 20.6328 7.99905 20.5555C7.99006 20.4861 7.95621 20.4223 7.91555 20.367C7.84728 20.2733 7.77163 20.1972 7.77276 20.1723C7.77446 20.1475 8.01143 20.3551 8.35337 20.5622C8.6953 20.7687 9.02598 20.8776 9.02598 20.9538C9.02598 21.031 9.09936 21.0926 9.19014 21.0926H9.3543C9.3543 21.0926 9.47278 21.0926 9.61944 21.0926C9.76554 21.0926 9.88459 21.1677 9.88459 21.2602C9.88459 21.3516 10.1255 21.4266 10.4223 21.4266C10.7191 21.4266 10.9515 21.4892 10.9414 21.5654C10.9352 21.6105 10.9296 21.6568 10.9233 21.7042C10.8624 22.1505 10.7885 22.6719 10.7275 23.2299C10.6564 23.7884 10.6062 24.3843 10.5476 24.9795C10.4985 25.5759 10.3546 26.1706 10.3427 26.7298C10.3427 26.776 10.3444 26.8212 10.3461 26.8669C10.3496 26.9425 10.2486 27.004 10.1187 27.004C9.98899 27.004 9.88403 27.1055 9.88403 27.2297C9.88403 27.3539 9.67524 27.456 9.41794 27.456C9.16063 27.456 8.95184 27.9615 8.95184 28.5845V28.6161C8.95184 29.2389 9.44158 29.7445 10.0453 29.7445H11.1391H11.3084H15.9204H16.0897H20.6865H20.8558C20.8558 29.7445 21.3331 29.7445 21.9204 29.7445C22.5078 29.7445 22.9846 29.239 22.9846 28.6161V28.5845C22.9846 27.9616 22.7888 27.456 22.5479 27.456C22.307 27.456 22.1118 27.3539 22.1118 27.2297C22.1118 27.1055 22.0063 27.004 21.8771 27.004C21.7474 27.004 21.6464 26.9425 21.6497 26.8669C21.652 26.8218 21.6531 26.776 21.6531 26.7298C21.6413 26.1712 21.4985 25.5759 21.4488 24.9795C21.3901 24.3843 21.3399 23.789 21.2695 23.2299C21.208 22.6719 21.1346 22.1504 21.0732 21.7042C21.0669 21.6568 21.0613 21.6105 21.0557 21.5654C21.045 21.4886 21.278 21.4266 21.5748 21.4266C21.8711 21.4266 22.1125 21.3515 22.1125 21.2602C22.1125 21.1676 22.3077 21.0926 22.5486 21.0926C22.7895 21.0926 22.9853 21.0311 22.9853 20.9538C22.9853 20.877 23.3154 20.7699 23.6568 20.5622C23.9987 20.3551 24.2351 20.148 24.2368 20.1723C24.2385 20.1966 24.1628 20.2745 24.0946 20.367C24.0545 20.4218 24.0201 20.4861 24.0116 20.5555C24.001 20.6339 24.0246 20.7107 24.0799 20.7789C24.1419 20.8562 24.2413 20.9155 24.3214 20.9217C24.5053 20.9234 24.7469 20.8416 24.7621 20.6182C24.7654 20.5404 24.749 20.4765 24.7225 20.4257ZM15.7055 21.7049C15.6446 22.1523 15.5706 22.6725 15.5097 23.2311C15.4385 23.7897 15.3883 24.3849 15.3297 24.9813C15.2806 25.5771 15.1367 26.1724 15.1249 26.731C15.1249 26.7772 15.1266 26.8224 15.1283 26.8681C15.1317 26.9437 15.0307 27.0052 14.9009 27.0052C14.7711 27.0052 14.6662 27.1068 14.6662 27.2315C14.6662 27.3562 14.1956 27.4572 13.6156 27.4572C13.0356 27.4572 12.565 27.3557 12.565 27.2315C12.565 27.1062 12.4601 27.0052 12.3303 27.0052C12.2006 27.0052 12.0996 26.9437 12.1029 26.8681C12.1052 26.823 12.1063 26.7772 12.1063 26.731C12.0951 26.173 11.9511 25.5771 11.9015 24.9813C11.8428 24.3849 11.7926 23.7902 11.7215 23.2311C11.6601 22.6725 11.5867 22.1522 11.5257 21.7049C11.5195 21.6575 11.5133 21.6123 11.5076 21.5672C11.4975 21.4899 11.73 21.4284 12.0268 21.4284C12.3236 21.4284 12.5645 21.3533 12.5645 21.2608C12.5645 21.1694 13.035 21.0944 13.615 21.0944C14.1951 21.0944 14.6656 21.1695 14.6656 21.2608C14.6656 21.3534 14.9065 21.4284 15.2033 21.4284C15.5001 21.4284 15.7325 21.4904 15.7224 21.5672C15.7173 21.6124 15.7111 21.6575 15.7055 21.7049ZM20.4716 21.7049C20.4107 22.1523 20.3367 22.6725 20.2757 23.2311C20.204 23.7897 20.1544 24.3849 20.0963 24.9813C20.0473 25.5771 19.9033 26.1724 19.8915 26.731C19.8915 26.7772 19.8938 26.8224 19.8949 26.8681C19.8983 26.9437 19.7973 27.0052 19.6681 27.0052C19.5383 27.0052 19.4334 27.1068 19.4334 27.2315C19.4334 27.3562 18.9661 27.4572 18.3906 27.4572C17.8146 27.4572 17.3468 27.3557 17.3468 27.2315C17.3468 27.1062 17.2418 27.0052 17.1121 27.0052C16.9823 27.0052 16.8814 26.9437 16.8847 26.8681C16.8869 26.823 16.8881 26.7772 16.8881 26.731C16.8768 26.173 16.7329 25.5771 16.6833 24.9813C16.6245 24.3849 16.5743 23.7902 16.5033 23.2311C16.4418 22.6725 16.3685 22.1522 16.3075 21.7049C16.3012 21.6575 16.2951 21.6123 16.2894 21.5672C16.2793 21.4899 16.5117 21.4284 16.8085 21.4284C17.1054 21.4284 17.3462 21.3533 17.3462 21.2608C17.3462 21.1694 17.8134 21.0944 18.3895 21.0944C18.9656 21.0944 19.4322 21.1695 19.4322 21.2608C19.4322 21.3534 19.6737 21.4284 19.9699 21.4284C20.2667 21.4284 20.4992 21.4904 20.4891 21.5672C20.4834 21.6124 20.4772 21.6575 20.4716 21.7049Z" fill="#4788C7"/>
</g>
<defs>
<clipPath id="clip0_3_20">
<rect width="32" height="32" fill="none"/>
</clipPath>
</defs>
</svg>
