<svg width="25" height="27" viewBox="0 0 25 27" fill="none" xmlns="http://www.w3.org/2000/svg">
<path d="M13.8093 2.18173L13.8707 2.34256H14.0429H14.9423C15.4248 2.34458 15.8846 2.52845 16.2224 2.85075C16.5597 3.17263 16.7479 3.60606 16.75 4.05599V6.75H5.25V4.0561C5.2521 3.60613 5.44026 3.17265 5.7776 2.85075C6.11536 2.52845 6.57523 2.34458 7.05766 2.34256H7.77714H7.9493L8.0107 2.18173C8.22586 1.61818 8.61826 1.12936 9.13681 0.78301C9.65548 0.436567 10.2746 0.25 10.91 0.25C11.5454 0.25 12.1645 0.436567 12.6832 0.78301C13.2017 1.12936 13.5941 1.61818 13.8093 2.18173ZM15.2857 5.61419H15.5357V5.36419V3.94921C15.5357 3.82479 15.4838 3.70798 15.3955 3.62375C15.3077 3.5399 15.1909 3.49473 15.0714 3.49473H12.8092L12.757 3.02979L12.7555 3.01594L12.7524 3.00234C12.6819 2.69204 12.5312 2.40472 12.3153 2.16637C12.0994 1.92809 11.8253 1.74638 11.5187 1.63678C11.2121 1.5272 10.8821 1.49291 10.5585 1.53676C10.2373 1.58029 9.93173 1.69959 9.66945 1.88474C9.51249 1.98447 9.37895 2.11595 9.27862 2.27086C9.17694 2.42787 9.11201 2.60492 9.08905 2.78967L9.08904 2.78966L9.08873 2.79235L9.01101 3.47837H6.92857C6.80912 3.47837 6.69233 3.52354 6.60446 3.60739C6.51619 3.69163 6.46429 3.80843 6.46429 3.93285V5.36419V5.61419H6.71429H15.2857Z" fill="#98CCFD" stroke="#4788C7" stroke-width="0.5"/>
<path d="M14.0181 13.9294L13.6274 14.3496H14.2012H24.1642C24.3131 14.3496 24.4602 14.4133 24.5718 14.5338C24.684 14.6549 24.75 14.823 24.75 15.0018C24.75 15.1807 24.684 15.3488 24.5718 15.4699C24.4602 15.5903 24.3131 15.654 24.1642 15.654H14.2012H13.6288L14.0178 16.0739L16.3899 18.6343C16.3901 18.6346 16.3904 18.6349 16.3906 18.6352C16.4725 18.7256 16.5297 18.8423 16.5527 18.9713C16.5758 19.1009 16.5628 19.2346 16.5161 19.3553C16.4695 19.4758 16.3921 19.5759 16.2964 19.645C16.201 19.7139 16.0911 19.7495 15.9804 19.75L15.9799 19.75C15.9056 19.7505 15.8314 19.7351 15.7615 19.7043C15.6916 19.6734 15.6267 19.6275 15.571 19.568C15.5709 19.5679 15.5709 19.5678 15.5708 19.5677L11.3408 15.0018L15.5715 10.4352C15.6271 10.3751 15.6922 10.3286 15.7624 10.2972C15.8325 10.2658 15.9069 10.25 15.9815 10.25C16.0561 10.25 16.1305 10.2658 16.2006 10.2972C16.2708 10.3286 16.3358 10.3751 16.3915 10.4352C16.4472 10.4954 16.4924 10.5678 16.5234 10.6488C16.5545 10.7298 16.5707 10.8172 16.5707 10.9059C16.5707 10.9946 16.5545 11.082 16.5234 11.163C16.4924 11.2439 16.4473 11.3163 16.3917 11.3764C16.3916 11.3764 16.3916 11.3765 16.3915 11.3765L14.0181 13.9294Z" fill="#98CCFD" stroke="#4788C7" stroke-width="0.5"/>
<path d="M22.7499 4.37078L22.7499 4.37078V4.37455V11.75H21.2091V4.63636V4.38636H20.9591H19.25V3.25H21.3156C21.5126 3.251 21.7065 3.28323 21.8858 3.34404C22.0653 3.40492 22.2249 3.49265 22.3565 3.60013C22.4881 3.70754 22.5882 3.83172 22.6543 3.96368C22.7203 4.09532 22.752 4.23345 22.7499 4.37078Z" fill="#98CCFD" stroke="#4788C7" stroke-width="0.5"/>
<path d="M21.2308 25.5357H21.4808V25.2857V17.8729H22.75L22.75 25.5686L22.75 25.5701C22.7519 25.8774 22.6284 26.1746 22.4037 26.3962C22.1791 26.6179 21.8715 26.7459 21.5477 26.75H1.46052C1.29903 26.749 1.13951 26.7171 0.991181 26.6563C0.842674 26.5954 0.708565 26.5069 0.596365 26.3962C0.484182 26.2855 0.396124 26.1549 0.336855 26.012C0.277594 25.8691 0.248176 25.7166 0.250088 25.5631L0.250107 25.5631V25.56V4.43143H0.250112L0.250102 4.42986C0.248169 4.12259 0.371717 3.82545 0.596399 3.60376C0.821022 3.38213 1.12854 3.25413 1.45239 3.25H3.28855V4.46429H1.76933H1.51933V4.71429V25.2857V25.5357H1.76933H21.2308Z" fill="#98CCFD" stroke="#4788C7" stroke-width="0.5"/>
</svg>
